<svg t="1619612252228" class="icon" viewBox="0 0 1024 1024" version="1.1" xmlns="http://www.w3.org/2000/svg" p-id="5345" width="200" height="200"><path d="M361.984 805.888L185.344 297.984c-0.512-1.536 0.512-3.584 2.048-4.096l507.904-176.64c1.536-0.512 3.584 0.512 4.096 2.048l176.64 507.904c0.512 1.536-0.512 3.584-2.048 4.096l-507.904 176.64c-1.536 0.512-3.584 0-4.096-2.048z" fill="#FFFFFF" p-id="5346"></path><path d="M365.056 816.128c-1.536 0-3.072-0.512-4.608-1.024-2.56-1.024-4.608-3.584-5.632-6.144L178.176 300.544c-1.024-2.56-1.024-5.632 0.512-8.192 1.024-2.56 3.584-4.608 6.144-5.632l507.904-176.64c5.632-2.048 11.776 1.024 13.824 6.656l176.64 507.904c2.048 5.632-1.024 11.776-6.656 13.824L368.64 815.104c-1.024 0.512-2.048 1.024-3.584 1.024zM194.048 299.52l173.568 499.712 499.712-173.568-173.568-499.712-499.712 173.568z" fill="#2E66FF" p-id="5347"></path><path d="M192 303.104s220.672 18.432 378.368 110.592c0 0-146.432 293.376-204.288 379.904 0 0-150.016-440.32-174.08-490.496z" fill="#C9E6FF" p-id="5348"></path><path d="M698.88 135.68l-112.128 265.216s196.608 114.688 277.504 223.232l-165.376-488.448z" fill="#FFB5EC" p-id="5349"></path><path d="M865.792 637.44C605.184 331.776 193.536 301.056 189.44 300.544l1.024-15.36c1.024 0 106.496 7.68 243.2 53.248 125.952 41.984 305.664 126.464 443.904 288.768l-11.776 10.24z" fill="#2E66FF" p-id="5350"></path><path d="M375.296 811.008l-13.312-7.68c279.04-477.184 322.56-684.544 323.072-686.592l14.848 3.072c0 2.048-44.032 211.968-324.608 691.2z" fill="#2E66FF" p-id="5351"></path><path d="M355.84 809.472c-20.992 24.064-97.792 109.056-143.872 105.472-2.56 0-4.096 2.56-2.56 4.608 11.264 16.384 48.128 62.464 93.696 59.904 1.024 0 2.048-0.512 2.56-1.536 6.656-10.24 49.664-82.432 55.296-166.4 0-2.56-3.584-3.584-5.12-2.048z" fill="#FFF152" p-id="5352"></path><path d="M300.032 987.136c-46.592 0-82.944-44.032-96.768-63.488-2.56-3.584-2.56-7.68-0.512-11.264 2.048-3.584 5.632-5.632 9.728-5.12 33.28 2.56 92.672-51.2 137.728-102.912 3.072-3.584 7.68-4.608 11.776-3.072 4.096 1.536 6.656 6.144 6.656 10.24-5.632 84.992-47.616 156.672-56.32 169.984-2.048 3.072-5.12 4.608-8.192 5.12-1.536 0.512-3.072 0.512-4.096 0.512z m-1.024-13.312z m-77.824-51.2c13.824 17.408 44.032 49.664 78.848 49.664h0.512c8.192-13.824 43.008-74.24 51.2-145.92-31.232 33.792-88.064 90.624-130.56 96.256zM207.872 291.84s-54.272-19.968-108.544 1.024l23.04 35.84L207.872 291.84zM858.112 606.208s49.152 30.208 66.56 86.016l-42.496 4.096-24.064-90.112z" fill="#2E66FF" p-id="5353"></path></svg>